<svg xmlns="http://www.w3.org/2000/svg" xmlns:xlink="http://www.w3.org/1999/xlink" width="500" zoomAndPan="magnify" viewBox="0 0 375 74.999997" height="100" preserveAspectRatio="xMidYMid meet" version="1.0"><defs><g/></defs><g fill="#fdb11d" fill-opacity="1"><g transform="translate(7.044507, 54.468684)"><g><path d="M 6.90625 -44.703125 L 17.40625 -44.703125 C 24.882812 -44.703125 30.726562 -42.976562 34.9375 -39.53125 C 38.019531 -37.007812 40.296875 -34.492188 41.765625 -31.984375 L 44.34375 -31.984375 C 46.5625 -28.210938 47.671875 -24.957031 47.671875 -22.21875 L 47.671875 -21.828125 C 47.671875 -21.773438 47.539062 -21.597656 47.28125 -21.296875 L 46.359375 -21.453125 L 44.890625 -21.453125 L 44.890625 -20.5625 C 44.890625 -20.300781 44.765625 -20.171875 44.515625 -20.171875 L 42.5 -20.171875 L 42.5 -18.703125 L 44.515625 -18.703125 C 44.765625 -18.671875 44.890625 -18.546875 44.890625 -18.328125 L 44.890625 -17.96875 C 44.890625 -15.289062 43.847656 -11.785156 41.765625 -7.453125 C 41.515625 -7.410156 41.390625 -7.28125 41.390625 -7.0625 L 41.390625 -6.90625 L 44.890625 -6.90625 C 45.128906 -6.875 45.25 -6.75 45.25 -6.53125 C 44.84375 -6.289062 44.476562 -6.171875 44.15625 -6.171875 L 41 -6.171875 L 38.265625 -2.828125 L 34.75 -2.828125 C 32.90625 -2.828125 31.984375 -2.53125 31.984375 -1.9375 L 31.984375 -1.734375 L 36.765625 -1.734375 C 37.015625 -1.703125 37.140625 -1.578125 37.140625 -1.359375 C 36.941406 -1.359375 36.207031 -0.804688 34.9375 0.296875 C 30.300781 3.617188 25.816406 5.28125 21.484375 5.28125 L 1.171875 5.28125 L 1.171875 -1.359375 C 1.171875 -1.609375 1.050781 -1.734375 0.8125 -1.734375 L 0.4375 -1.734375 C -2.75 -1.734375 -4.34375 -1.914062 -4.34375 -2.28125 L -4.34375 -2.46875 C -4.3125 -2.707031 -4.1875 -2.828125 -3.96875 -2.828125 L 0.8125 -2.828125 C 1.050781 -2.828125 1.171875 -2.953125 1.171875 -3.203125 L 1.171875 -6.171875 C 1.984375 -6.171875 3.21875 -6.222656 4.875 -6.328125 L 4.875 -6.71875 C 3.195312 -6.84375 2.023438 -6.90625 1.359375 -6.90625 L 1.171875 -7.265625 L 1.171875 -18.140625 C 1.171875 -18.316406 0.988281 -18.503906 0.625 -18.703125 L -1.03125 -18.703125 C -1.269531 -18.703125 -1.390625 -18.820312 -1.390625 -19.0625 L -1.390625 -19.796875 C -1.390625 -20.085938 -0.898438 -20.273438 0.078125 -20.359375 L 0.4375 -20.171875 L 1.734375 -21.296875 C 3.335938 -21.296875 4.140625 -21.472656 4.140625 -21.828125 L 4.140625 -31.59375 C 4.140625 -31.882812 3.148438 -32.140625 1.171875 -32.359375 L 1.171875 -44.15625 L 1.359375 -44.515625 C 3.828125 -44.640625 5.675781 -44.703125 6.90625 -44.703125 Z M 14.46875 -34.375 L 14.46875 -32.359375 C 14.5 -32.109375 14.613281 -31.984375 14.8125 -31.984375 L 17.046875 -31.984375 C 17.285156 -31.941406 17.40625 -31.8125 17.40625 -31.59375 L 17.40625 -21.828125 C 17.40625 -21.742188 17.222656 -21.566406 16.859375 -21.296875 L 15.9375 -21.453125 L 14.8125 -21.453125 L 14.078125 -20.171875 L 12.421875 -20.171875 C 12.191406 -20.140625 12.078125 -20.015625 12.078125 -19.796875 L 12.078125 -18.703125 L 14.078125 -18.703125 C 14.191406 -18.703125 14.382812 -18.515625 14.65625 -18.140625 L 14.46875 -17.21875 L 14.46875 -10.03125 C 14.46875 -9.757812 14.53125 -9.515625 14.65625 -9.296875 C 14.53125 -9.078125 14.46875 -8.832031 14.46875 -8.5625 L 14.46875 -7.828125 L 14.65625 -6.90625 L 16.859375 -6.90625 C 17.128906 -6.90625 17.375 -6.84375 17.59375 -6.71875 C 17.8125 -6.84375 18.054688 -6.90625 18.328125 -6.90625 L 18.515625 -6.53125 L 17.78125 -6.171875 C 17.53125 -6.171875 17.40625 -6.222656 17.40625 -6.328125 L 16.125 -6.171875 L 14.65625 -6.171875 L 14.46875 -5.25 L 14.46875 -4.875 C 14.5 -4.613281 14.613281 -4.484375 14.8125 -4.484375 L 18.703125 -4.484375 C 19.898438 -4.484375 21.867188 -5.046875 24.609375 -6.171875 C 26.453125 -6.273438 27.800781 -6.328125 28.65625 -6.328125 L 28.84375 -6.71875 C 27.613281 -6.84375 26.691406 -6.90625 26.078125 -6.90625 L 25.71875 -6.90625 L 25.71875 -7.265625 C 27.988281 -8.910156 29.648438 -11.3125 30.703125 -14.46875 L 31.625 -18.328125 L 31.046875 -18.703125 L 29.390625 -18.703125 C 29.160156 -18.703125 29.046875 -18.820312 29.046875 -19.0625 L 29.046875 -19.796875 C 29.046875 -19.972656 29.222656 -20.160156 29.578125 -20.359375 C 29.710938 -20.359375 29.78125 -20.296875 29.78125 -20.171875 C 30.914062 -20.171875 31.648438 -20.546875 31.984375 -21.296875 L 33.09375 -21.296875 L 34.375 -21.453125 L 34.375 -21.828125 C 33.914062 -25.453125 32.140625 -28.769531 29.046875 -31.78125 C 26.335938 -32 24.664062 -32.4375 24.03125 -33.09375 C 22.0625 -34.195312 20.40625 -34.75 19.0625 -34.75 L 14.8125 -34.75 C 14.582031 -34.71875 14.46875 -34.59375 14.46875 -34.375 Z M 0.265625 -31.984375 L 0.625 -31.984375 C 0.875 -31.941406 1 -31.8125 1 -31.59375 L 1 -31.25 C 1 -31.03125 0.691406 -30.847656 0.078125 -30.703125 L -0.109375 -31.046875 L -0.109375 -31.59375 C -0.0664062 -31.851562 0.0546875 -31.984375 0.265625 -31.984375 Z M 26.453125 -21.296875 L 28.46875 -21.296875 C 28.71875 -21.253906 28.84375 -21.125 28.84375 -20.90625 L 28.84375 -20.71875 C 28.84375 -20.476562 28.71875 -20.359375 28.46875 -20.359375 L 26.8125 -20.359375 C 26.570312 -20.359375 26.453125 -20.476562 26.453125 -20.71875 Z M -3.078125 -20.359375 L -2.6875 -20.359375 C -2.4375 -20.328125 -2.3125 -20.203125 -2.3125 -19.984375 L -2.3125 -19.0625 C -2.3125 -18.820312 -2.4375 -18.703125 -2.6875 -18.703125 L -3.421875 -18.703125 L -3.421875 -19.984375 C -3.390625 -20.234375 -3.273438 -20.359375 -3.078125 -20.359375 Z M -3.078125 -20.359375 "/></g></g><g transform="translate(55.095265, 54.468684)"><g><path d="M 4.59375 -44.703125 C 4.832031 -44.703125 4.953125 -44.640625 4.953125 -44.515625 C 6.796875 -44.640625 8.15625 -44.703125 9.03125 -44.703125 L 21.921875 -44.703125 C 26.597656 -44.703125 29.734375 -44.273438 31.328125 -43.421875 C 32.429688 -43.097656 33.109375 -42.726562 33.359375 -42.3125 C 33.234375 -42.09375 33.171875 -41.847656 33.171875 -41.578125 C 35.097656 -40.648438 36.757812 -38.617188 38.15625 -35.484375 C 39.019531 -32.867188 39.453125 -30.898438 39.453125 -29.578125 C 39.453125 -29.128906 39.269531 -27.65625 38.90625 -25.15625 C 39.632812 -25.15625 40 -25.023438 40 -24.765625 C 38.601562 -20.941406 36.390625 -18.113281 33.359375 -16.28125 L 30.59375 -15.203125 L 30.59375 -15.015625 C 30.882812 -14.742188 31.5625 -13.753906 32.625 -12.046875 C 32.226562 -11.804688 31.921875 -11.6875 31.703125 -11.6875 L 31.890625 -11.3125 L 31.890625 -11.125 C 29.660156 -11.007812 28.1875 -10.953125 27.46875 -10.953125 L 27.46875 -10.765625 C 27.5 -10.515625 27.625 -10.390625 27.84375 -10.390625 L 32.4375 -10.390625 L 34.09375 -8.375 C 35.3125 -8.375 36.109375 -7.757812 36.484375 -6.53125 L 36.484375 -6.328125 C 35.867188 -6.328125 35.5625 -6.203125 35.5625 -5.953125 C 39.382812 -0.460938 41.296875 2.363281 41.296875 2.53125 C 40.804688 2.625 40.5625 2.738281 40.5625 2.875 C 41.414062 4.164062 41.84375 4.910156 41.84375 5.109375 L 41.5 5.28125 L 32.25 5.28125 C 31.21875 5.28125 29.554688 5.222656 27.265625 5.109375 C 26.285156 3.710938 25.796875 2.96875 25.796875 2.875 C 26.003906 2.75 26.316406 2.6875 26.734375 2.6875 L 26.734375 2.53125 C 23.160156 -2.882812 21.375 -5.835938 21.375 -6.328125 L 22.109375 -6.328125 L 22.109375 -6.71875 C 21.722656 -7.925781 20.988281 -8.53125 19.90625 -8.53125 C 18.945312 -9.769531 18.203125 -10.390625 17.671875 -10.390625 L 14.359375 -10.390625 L 14.359375 -9.46875 C 14.359375 -9.351562 14.300781 -9.296875 14.1875 -9.296875 L 14.359375 -8.921875 L 14.359375 -0.4375 L 16.390625 -0.4375 C 16.648438 -0.394531 16.78125 -0.265625 16.78125 -0.046875 C 16.78125 0.179688 16.648438 0.296875 16.390625 0.296875 L 14.359375 0.296875 C 14.359375 0.910156 14.300781 1.21875 14.1875 1.21875 L 14.359375 1.609375 L 14.359375 3.8125 C 14.359375 4.082031 14.300781 4.328125 14.1875 4.546875 C 14.300781 4.773438 14.359375 4.960938 14.359375 5.109375 L 14 5.28125 L 6.4375 5.28125 C 5.207031 5.28125 3.359375 5.222656 0.890625 5.109375 L 0.890625 0.6875 C 0.929688 0.425781 1.0625 0.296875 1.28125 0.296875 L 3.296875 0.296875 L 3.296875 -0.25 L 1.28125 -0.25 C 1.019531 -0.25 0.890625 -0.375 0.890625 -0.625 L 0.890625 -10.203125 L -0.03125 -10.390625 L -3.703125 -10.390625 C -3.953125 -10.390625 -4.078125 -10.515625 -4.078125 -10.765625 L -3.703125 -10.953125 C -0.640625 -11.015625 0.890625 -11.132812 0.890625 -11.3125 C 0.890625 -11.6875 1.019531 -11.875 1.28125 -11.875 C 1.507812 -11.75 1.691406 -11.6875 1.828125 -11.6875 L 2.015625 -12.046875 L 2.015625 -24.609375 C 2.046875 -24.847656 2.160156 -24.96875 2.359375 -24.96875 L 3.296875 -24.96875 L 3.484375 -26.078125 C 3.242188 -26.203125 3.0625 -26.265625 2.9375 -26.265625 C 1.851562 -26.140625 1.238281 -26.078125 1.09375 -26.078125 C 1.09375 -27.054688 0.601562 -27.546875 -0.375 -27.546875 L -0.375 -28.46875 L 0.890625 -29.203125 L 0.890625 -41.578125 L 2.015625 -42.3125 L 2.015625 -44.15625 C 2.046875 -44.394531 2.160156 -44.515625 2.359375 -44.515625 L 3.671875 -44.515625 C 4.085938 -44.515625 4.394531 -44.578125 4.59375 -44.703125 Z M 14.359375 -34.90625 C 14.359375 -34.800781 14.300781 -34.75 14.1875 -34.75 C 14.300781 -33.519531 14.359375 -32.597656 14.359375 -31.984375 L 14.359375 -30.859375 C 14.359375 -30.734375 14.300781 -30.671875 14.1875 -30.671875 L 14.359375 -30.3125 L 14.359375 -30.125 C 14.359375 -29.019531 13.867188 -28.46875 12.890625 -28.46875 L 12.890625 -27.359375 C 13.867188 -27.285156 14.359375 -27.101562 14.359375 -26.8125 L 14.1875 -26.8125 C 14.300781 -26.570312 14.359375 -26.390625 14.359375 -26.265625 L 18.796875 -26.265625 L 18.796875 -25.890625 L 17.125 -25.890625 L 16.390625 -24.96875 L 15.46875 -24.96875 L 15.46875 -23.109375 L 21.1875 -23.109375 C 23.664062 -23.109375 25.332031 -23.726562 26.1875 -24.96875 C 27.394531 -24.96875 28 -25.398438 28 -26.265625 L 26.34375 -26.265625 L 26 -26.4375 C 26.226562 -27.28125 26.34375 -28.019531 26.34375 -28.65625 L 26.34375 -30.125 C 26.34375 -31.414062 25.238281 -32.832031 23.03125 -34.375 C 22.757812 -34.625 21.535156 -34.800781 19.359375 -34.90625 L 18.984375 -34.75 L 18.59375 -34.90625 C 18.488281 -34.90625 18.4375 -34.851562 18.4375 -34.75 C 18 -34.851562 17.742188 -34.90625 17.671875 -34.90625 C 16.597656 -34.800781 15.992188 -34.75 15.859375 -34.75 C 15.160156 -34.851562 14.660156 -34.90625 14.359375 -34.90625 Z M 3.859375 -26.078125 L 3.859375 -25.890625 L 4.21875 -25.890625 L 4.21875 -26.078125 Z M 4.78125 -26.078125 L 4.78125 -25.890625 L 5.140625 -25.890625 L 5.140625 -26.078125 Z M 39.640625 -26.265625 L 40.1875 -26.265625 L 40.1875 -25.890625 L 39.640625 -25.890625 Z M 40.921875 -26.265625 L 41.5 -26.265625 L 41.5 -25.890625 L 40.921875 -25.890625 Z M 41.84375 -26.265625 L 43.5 -26.265625 L 43.5 -25.890625 L 41.84375 -25.890625 Z M 14.921875 -11.6875 L 14.546875 -11.875 C 14.546875 -11.625 14.425781 -11.5 14.1875 -11.5 C 14.300781 -11.257812 14.359375 -11.078125 14.359375 -10.953125 C 15.585938 -11.066406 16.507812 -11.125 17.125 -11.125 L 17.328125 -11.125 L 17.671875 -10.953125 L 18.4375 -12.234375 C 17.945312 -13.335938 17.640625 -13.890625 17.515625 -13.890625 L 15.859375 -13.890625 C 15.597656 -13.890625 15.40625 -13.15625 15.28125 -11.6875 Z M 9.375 -10.953125 L 9.375 -10.765625 C 9.414062 -10.515625 9.546875 -10.390625 9.765625 -10.390625 L 13.078125 -10.390625 C 13.316406 -10.390625 13.4375 -10.515625 13.4375 -10.765625 L 13.4375 -10.953125 Z M 24.140625 2.875 L 24.5 2.875 C 24.5 3.082031 24.625 3.328125 24.875 3.609375 L 24.875 4 C 24.71875 3.976562 24.472656 3.671875 24.140625 3.078125 Z M 25.421875 4.734375 L 25.609375 4.734375 L 25.609375 5.109375 L 25.421875 5.109375 Z M 25.421875 4.734375 "/></g></g><g transform="translate(97.081892, 54.468684)"><g><path d="M 28.0625 -44.625 C 32.28125 -44.625 35.851562 -43.722656 38.78125 -41.921875 C 38.5625 -41.816406 38.320312 -41.765625 38.0625 -41.765625 L 38.0625 -41.40625 C 38.5 -41.40625 40.160156 -40.273438 43.046875 -38.015625 C 43.753906 -38.015625 44.46875 -37.78125 45.1875 -37.3125 L 47.171875 -37.3125 L 48.046875 -37.109375 L 48.046875 -36.921875 C 48.046875 -36.691406 47.925781 -36.578125 47.6875 -36.578125 L 46.796875 -36.578125 C 46.691406 -36.578125 46.640625 -36.640625 46.640625 -36.765625 C 46.429688 -36.640625 46.128906 -36.578125 45.734375 -36.578125 L 45.734375 -36.40625 C 48.429688 -33.394531 50.453125 -29.34375 51.796875 -24.25 L 51.28125 -23.90625 L 46.984375 -23.90625 L 46.984375 -23.703125 C 48.742188 -23.703125 49.757812 -23.648438 50.03125 -23.546875 C 50.226562 -23.648438 50.523438 -23.703125 50.921875 -23.703125 L 51.28125 -23.703125 C 51.75 -23.703125 51.984375 -22.570312 51.984375 -20.3125 C 52.023438 -20.070312 52.144531 -19.953125 52.34375 -19.953125 L 54.140625 -19.953125 C 54.242188 -19.953125 54.296875 -19.898438 54.296875 -19.796875 L 54.6875 -19.953125 L 54.84375 -19.953125 C 55.570312 -19.878906 55.9375 -19.707031 55.9375 -19.4375 C 55.9375 -15.46875 54.800781 -11.472656 52.53125 -7.453125 L 52.1875 -7.28125 L 48.78125 -7.28125 L 48.046875 -6.75 L 46.28125 -6.75 C 46.039062 -6.707031 45.921875 -6.585938 45.921875 -6.390625 C 47.234375 -6.390625 47.890625 -6.328125 47.890625 -6.203125 C 45.109375 -1.628906 40.816406 1.757812 35.015625 3.96875 C 32.191406 4.695312 29.628906 5.0625 27.328125 5.0625 L 25.375 5.0625 C 23.976562 5.0625 23.023438 4.929688 22.515625 4.671875 C 22.273438 4.804688 22.09375 4.875 21.96875 4.875 C 16.726562 3.976562 12.625 2.242188 9.65625 -0.328125 C 7.351562 -2.265625 5.503906 -4.222656 4.109375 -6.203125 C 3.910156 -6.328125 3.675781 -6.390625 3.40625 -6.390625 L 1.796875 -6.390625 L 1.796875 -6.75 L 3.5625 -6.75 C 3.5625 -7.101562 3.6875 -7.28125 3.9375 -7.28125 L 6.25 -7.28125 L 7.15625 -7.453125 C 5.300781 -10.960938 4.285156 -14.179688 4.109375 -17.109375 L 4.109375 -17.640625 L 4.296875 -18 C 4.398438 -18 4.453125 -17.9375 4.453125 -17.8125 C 6.253906 -17.9375 7.570312 -18 8.40625 -18 L 11.0625 -18 L 11.0625 -18.1875 C 11.0625 -18.425781 10.945312 -18.546875 10.71875 -18.546875 L 4.296875 -18.546875 C 4.148438 -18.546875 3.851562 -18.960938 3.40625 -19.796875 L 0.359375 -19.796875 C 0.117188 -19.796875 0 -19.914062 0 -20.15625 C 0 -20.382812 0.476562 -20.5625 1.4375 -20.6875 L 1.4375 -21.40625 C 1.3125 -21.40625 1.128906 -21.457031 0.890625 -21.5625 C 0.660156 -21.457031 0.484375 -21.40625 0.359375 -21.40625 C 0.242188 -21.632812 0.1875 -21.8125 0.1875 -21.9375 C 0.53125 -26.070312 2.070312 -30.234375 4.8125 -34.421875 C 5.863281 -35.859375 6.820312 -36.578125 7.6875 -36.578125 C 9.226562 -36.578125 10 -36.753906 10 -37.109375 C 9.601562 -37.347656 9.253906 -37.46875 8.953125 -37.46875 L 8.75 -37.46875 L 7.859375 -37.3125 L 7.6875 -37.65625 L 7.859375 -38.015625 C 7.390625 -38.015625 7.15625 -38.128906 7.15625 -38.359375 C 8.039062 -39.140625 9.707031 -40.273438 12.15625 -41.765625 L 14.109375 -41.765625 C 17.296875 -43.671875 21.945312 -44.625 28.0625 -44.625 Z M 13.21875 -22.296875 L 13.21875 -21.9375 L 14.296875 -21.203125 L 14.296875 -20.859375 C 14.296875 -20.617188 14.171875 -20.5 13.921875 -20.5 L 13.046875 -20.5 L 13.046875 -19.953125 L 16.265625 -19.953125 C 16.460938 -19.953125 16.640625 -19.535156 16.796875 -18.703125 C 19.359375 -18.597656 21.265625 -18.546875 22.515625 -18.546875 L 23.921875 -18.546875 L 23.921875 -18.1875 C 23.921875 -17.9375 23.804688 -17.8125 23.578125 -17.8125 C 23.359375 -17.9375 23.1875 -18 23.0625 -18 C 22.9375 -18 22.875 -17.9375 22.875 -17.8125 L 21.96875 -18 C 21.53125 -18 19.863281 -17.9375 16.96875 -17.8125 L 16.96875 -16.9375 C 17.550781 -14.019531 19.035156 -11.390625 21.421875 -9.046875 C 22.742188 -8.140625 23.40625 -7.609375 23.40625 -7.453125 L 23.0625 -7.28125 L 20.5625 -7.28125 L 20.71875 -6.9375 L 20.71875 -6.75 L 19.65625 -6.75 L 19.65625 -6.390625 L 21.8125 -6.390625 C 23.925781 -5.796875 25.347656 -5.5 26.078125 -5.5 C 26.765625 -5.5 27.894531 -5.675781 29.46875 -6.03125 C 29.46875 -6.269531 29.351562 -6.390625 29.125 -6.390625 L 28.21875 -6.390625 L 28.21875 -6.75 L 30.1875 -6.75 C 30.3125 -6.75 31.144531 -6.925781 32.6875 -7.28125 L 34.484375 -7.28125 C 34.753906 -7.28125 34.988281 -7.335938 35.1875 -7.453125 C 35.414062 -7.335938 35.597656 -7.28125 35.734375 -7.28125 C 38.066406 -8.28125 40.148438 -10.484375 41.984375 -13.890625 C 42.691406 -16.285156 43.046875 -17.65625 43.046875 -18 L 43.046875 -19.4375 C 43.046875 -19.632812 42.457031 -19.804688 41.28125 -19.953125 L 40.921875 -19.796875 L 39.671875 -19.796875 C 39.179688 -19.796875 38.9375 -20.984375 38.9375 -23.359375 L 38.0625 -23.546875 L 31.984375 -23.546875 L 31.984375 -23.90625 C 33.773438 -24.007812 35.085938 -24.0625 35.921875 -24.0625 L 38.578125 -24.0625 L 38.578125 -24.25 C 37.453125 -27.425781 35.671875 -29.863281 33.234375 -31.5625 C 30.523438 -33.238281 28.320312 -34.078125 26.625 -34.078125 C 21.632812 -34.078125 17.582031 -31.519531 14.46875 -26.40625 C 13.632812 -24.300781 13.21875 -22.929688 13.21875 -22.296875 Z M 0.890625 -18.546875 L 2.859375 -18.546875 C 3.085938 -18.503906 3.203125 -18.382812 3.203125 -18.1875 L 2.859375 -18 L 0.890625 -18 Z M 44.84375 -17.8125 L 44.671875 -17.453125 L 44.671875 -17.296875 L 44.84375 -17.296875 C 44.84375 -17.523438 44.957031 -17.640625 45.1875 -17.640625 L 45.1875 -17.8125 Z M 22.875 -15.140625 L 23.0625 -15.140625 C 23.289062 -15.109375 23.40625 -14.992188 23.40625 -14.796875 L 23.40625 -14.25 C 23.40625 -14.007812 23.289062 -13.890625 23.0625 -13.890625 L 22.875 -13.890625 C 22.632812 -13.890625 22.515625 -14.007812 22.515625 -14.25 L 22.515625 -14.796875 C 22.546875 -15.023438 22.664062 -15.140625 22.875 -15.140625 Z M 1.953125 -13.1875 L 3.046875 -13.1875 L 3.203125 -12.296875 L 2.6875 -11.9375 L 2.140625 -11.9375 C 1.910156 -11.9375 1.734375 -12.289062 1.609375 -13 Z M 1.953125 -13.1875 "/></g></g><g transform="translate(149.782724, 54.468684)"><g><path d="M 4.296875 -44.703125 C 4.953125 -44.578125 5.566406 -44.515625 6.140625 -44.515625 C 6.722656 -44.515625 7.34375 -44.578125 8 -44.703125 C 8.269531 -44.703125 8.515625 -44.640625 8.734375 -44.515625 C 11.304688 -44.640625 13.398438 -44.703125 15.015625 -44.703125 L 22.375 -44.703125 C 28.414062 -44.703125 32.664062 -43.285156 35.125 -40.453125 L 34.75 -40.265625 L 33.46875 -40.265625 L 33.46875 -39.921875 C 33.507812 -39.660156 33.628906 -39.53125 33.828125 -39.53125 L 36.0625 -39.53125 C 37.6875 -38.101562 38.972656 -35.394531 39.921875 -31.40625 L 41.953125 -31.40625 C 42.191406 -31.363281 42.3125 -31.242188 42.3125 -31.046875 C 41.914062 -30.796875 41.550781 -30.671875 41.21875 -30.671875 L 40.84375 -30.859375 C 40.09375 -30.734375 39.71875 -30.609375 39.71875 -30.484375 C 39.851562 -30.242188 39.921875 -30.0625 39.921875 -29.9375 L 39.375 -29.5625 L 38.0625 -29.5625 L 38.0625 -27.890625 C 38.0625 -26.585938 37.394531 -24.503906 36.0625 -21.640625 C 35.800781 -21.585938 35.671875 -21.460938 35.671875 -21.265625 L 40.296875 -21.265625 L 40.296875 -20.71875 L 36.984375 -20.71875 C 36.691406 -20.71875 36.4375 -20.65625 36.21875 -20.53125 C 36.019531 -20.65625 35.773438 -20.71875 35.484375 -20.71875 C 35.117188 -20.34375 34.445312 -20.097656 33.46875 -19.984375 C 32.851562 -19.398438 32.546875 -18.96875 32.546875 -18.6875 C 32.785156 -18.644531 32.90625 -18.515625 32.90625 -18.296875 C 31.03125 -16.460938 28.382812 -15.296875 24.96875 -14.796875 L 22.765625 -14.796875 C 21.160156 -14.796875 19.5 -14.738281 17.78125 -14.625 C 17.09375 -14.738281 16.59375 -14.796875 16.28125 -14.796875 C 15.445312 -14.679688 14.78125 -14.625 14.28125 -14.625 L 13.890625 -14.796875 C 13.671875 -14.679688 13.425781 -14.625 13.15625 -14.625 L 13.15625 -13.703125 C 13.15625 -13.578125 13.09375 -13.515625 12.96875 -13.515625 C 12.96875 -12.640625 13.582031 -12.203125 14.8125 -12.203125 L 14.8125 3.453125 C 14.8125 4.066406 15.054688 4.375 15.546875 4.375 L 15.546875 4.953125 C 15.546875 5.179688 15.429688 5.296875 15.203125 5.296875 L 7.265625 5.296875 C 6.210938 5.296875 4.671875 5.242188 2.640625 5.140625 C 2.640625 5.242188 2.578125 5.296875 2.453125 5.296875 C 2.410156 4.898438 2.046875 4.476562 1.359375 4.03125 L 1.359375 -12.40625 L 0.4375 -12.59375 L -0.296875 -12.59375 L -0.296875 -18.140625 L -1.609375 -18.875 L -1.609375 -19.796875 L 0.046875 -20.71875 C 2.316406 -20.832031 3.734375 -20.890625 4.296875 -20.890625 L 4.296875 -21.078125 C 3.929688 -21.078125 3.503906 -21.140625 3.015625 -21.265625 L 2.640625 -21.078125 C 1.960938 -21.203125 1.410156 -21.265625 0.984375 -21.265625 L 0.046875 -21.265625 C -0.179688 -21.265625 -0.296875 -21.390625 -0.296875 -21.640625 L -0.296875 -29.5625 L 0.4375 -29.5625 C 1.15625 -29.5625 1.515625 -29.929688 1.515625 -30.671875 C 2.078125 -30.671875 2.453125 -30.734375 2.640625 -30.859375 C 2.859375 -30.734375 3.101562 -30.671875 3.375 -30.671875 C 3.625 -30.671875 3.75 -30.796875 3.75 -31.046875 C 3.75 -31.285156 3.625 -31.40625 3.375 -31.40625 L 1.71875 -31.40625 C 1.476562 -31.40625 1.359375 -31.597656 1.359375 -31.984375 C 1.359375 -33.503906 1.410156 -34.914062 1.515625 -36.21875 C 1.410156 -37.15625 1.359375 -38.195312 1.359375 -39.34375 L 0.984375 -39.53125 L -0.875 -39.53125 C -1.101562 -39.53125 -1.21875 -39.660156 -1.21875 -39.921875 C -1.1875 -40.148438 -1.070312 -40.265625 -0.875 -40.265625 L 0.984375 -40.265625 C 1.265625 -40.265625 1.441406 -40.570312 1.515625 -41.1875 L 1.359375 -42.125 C 1.453125 -43.71875 1.632812 -44.515625 1.90625 -44.515625 L 2.640625 -44.515625 C 3.285156 -44.515625 3.835938 -44.578125 4.296875 -44.703125 Z M -2.875 -40.265625 L -2.53125 -40.265625 C -2.269531 -40.234375 -2.140625 -40.117188 -2.140625 -39.921875 L -2.140625 -39.53125 L -2.875 -39.53125 C -3.132812 -39.53125 -3.265625 -39.660156 -3.265625 -39.921875 C -3.222656 -40.148438 -3.09375 -40.265625 -2.875 -40.265625 Z M 14.8125 -34.90625 L 14.8125 -31.78125 C 14.851562 -31.53125 14.984375 -31.40625 15.203125 -31.40625 L 16.859375 -31.40625 C 17.097656 -31.363281 17.21875 -31.242188 17.21875 -31.046875 C 17.21875 -30.796875 17.097656 -30.671875 16.859375 -30.671875 C 16.585938 -30.671875 16.34375 -30.734375 16.125 -30.859375 C 15.90625 -30.734375 15.660156 -30.671875 15.390625 -30.671875 L 15.015625 -30.859375 C 14.847656 -29.992188 14.664062 -29.5625 14.46875 -29.5625 L 13.15625 -29.5625 C 13.15625 -28.875 13.09375 -28.445312 12.96875 -28.28125 C 13.09375 -27.601562 13.15625 -27.050781 13.15625 -26.625 L 13.15625 -26.234375 C 13.15625 -25.960938 13.09375 -25.71875 12.96875 -25.5 C 13.09375 -25.28125 13.15625 -25.035156 13.15625 -24.765625 L 13.15625 -24.03125 L 19.796875 -24.03125 C 22.347656 -24.03125 24.132812 -25.382812 25.15625 -28.09375 C 25.15625 -28.863281 25.28125 -29.414062 25.53125 -29.75 L 26.453125 -29.5625 L 26.640625 -29.5625 C 26.878906 -29.5625 27 -29.929688 27 -30.671875 L 28.84375 -30.671875 C 28.84375 -30.796875 28.910156 -30.988281 29.046875 -31.25 L 28.65625 -31.40625 L 26.640625 -31.40625 C 25.453125 -33.738281 23.425781 -34.90625 20.5625 -34.90625 Z M 23.875 -31.25 L 25.890625 -31.25 L 25.890625 -30.859375 L 24.796875 -30.859375 L 23.875 -31.046875 Z M 23.875 -31.25 "/></g></g><g transform="translate(190.16494, 54.468684)"><g><path d="M 4.59375 -44.703125 L 42.53125 -44.703125 L 42.53125 -44.15625 L 40.515625 -44.15625 C 40.078125 -43.957031 38.90625 -41.925781 37 -38.0625 C 37.875 -38.0625 38.3125 -37.945312 38.3125 -37.71875 C 35.320312 -31.675781 33.289062 -27.929688 32.21875 -26.484375 C 31.019531 -26.484375 30.40625 -26.421875 30.375 -26.296875 C 30.175781 -26.421875 29.929688 -26.484375 29.640625 -26.484375 L 29.28125 -26.484375 C 29.28125 -26.410156 29.398438 -26.21875 29.640625 -25.90625 L 29.640625 -25.71875 L 29.46875 -25.375 L 30.75 -25.171875 C 31.113281 -25.171875 31.296875 -25.238281 31.296875 -25.375 L 32.21875 -25.171875 L 35 -25.171875 C 35.226562 -25.140625 35.34375 -25.023438 35.34375 -24.828125 L 35 -24.640625 L 33.140625 -24.640625 C 32.710938 -24.640625 32.160156 -24.570312 31.484375 -24.4375 C 31.328125 -24.570312 30.898438 -24.640625 30.203125 -24.640625 C 29.335938 -23.523438 27.375 -19.898438 24.3125 -13.765625 L 24.65625 -13.5625 L 26.515625 -13.5625 C 26.765625 -13.53125 26.890625 -13.414062 26.890625 -13.21875 C 26.816406 -12.851562 26.328125 -12.671875 25.421875 -12.671875 L 23.921875 -12.671875 L 22.84375 -11.5625 L 20.453125 -11.5625 C 20.117188 -11.070312 19.375 -10.828125 18.21875 -10.828125 L 19.328125 -10.09375 C 17.898438 -7.332031 17.039062 -5.546875 16.75 -4.734375 L 18.59375 -4.734375 L 19.71875 -4.5625 C 19.820312 -4.5625 19.875 -4.617188 19.875 -4.734375 L 21.1875 -4.5625 C 21.90625 -4.5625 22.265625 -4.617188 22.265625 -4.734375 L 24.125 -4.5625 L 33.140625 -4.5625 C 33.992188 -4.5625 35.347656 -4.617188 37.203125 -4.734375 C 37.546875 -3.878906 37.789062 -3.453125 37.9375 -3.453125 L 40.140625 -3.453125 C 40.390625 -3.421875 40.515625 -3.296875 40.515625 -3.078125 L 40.515625 2.796875 L 40.328125 5 C 39.109375 5.125 25.972656 5.125 0.921875 5 L 0.375 5 C 0.125 5 0 4.882812 0 4.65625 C 2.03125 1.03125 3.378906 -1.609375 4.046875 -3.265625 L 4.046875 -3.453125 L 3.859375 -3.453125 L 2.203125 -3.640625 C 1.960938 -3.515625 1.78125 -3.453125 1.65625 -3.453125 L 1.46875 -3.828125 L 4.78125 -9.890625 L 4.78125 -10.4375 L 3.859375 -10.4375 L 3.859375 -10.828125 L 4.96875 -10.828125 L 6.0625 -11.75 L 8.484375 -11.75 C 8.554688 -11.75 8.921875 -12.109375 9.578125 -12.828125 L 11.96875 -12.828125 C 12.21875 -12.828125 12.34375 -12.957031 12.34375 -13.21875 C 12.34375 -13.445312 12.21875 -13.5625 11.96875 -13.5625 L 10.109375 -13.5625 L 9.765625 -13.765625 L 15.46875 -24.4375 C 17.5 -24.570312 19.03125 -24.640625 20.0625 -24.640625 L 20.453125 -24.640625 C 20.679688 -24.640625 20.796875 -24.753906 20.796875 -24.984375 L 20.796875 -25.171875 L 20.609375 -25.171875 C 19.398438 -25.171875 17.5625 -25.238281 15.09375 -25.375 L 15.09375 -25.5625 C 15.09375 -26.28125 16.082031 -26.640625 18.0625 -26.640625 L 22.265625 -34.390625 L 22.265625 -34.9375 L 7.171875 -34.9375 C 6.898438 -34.9375 6.65625 -35 6.4375 -35.125 C 6.3125 -35.125 6.25 -35.0625 6.25 -34.9375 L 4.96875 -35.125 L 3.671875 -35.125 C 3.429688 -35.125 3.3125 -35.242188 3.3125 -35.484375 L 3.3125 -37.71875 L 3.5 -38.0625 C 2.394531 -38.0625 1.84375 -38.304688 1.84375 -38.796875 L 2.015625 -39.921875 L 1.84375 -41.03125 L 2.015625 -42.125 L 1.84375 -43.96875 L 2.203125 -44.15625 L 3.859375 -44.15625 Z M 2.9375 -38.640625 L 2.9375 -38.265625 L 3.125 -38.265625 L 3.125 -38.640625 Z M 0.921875 -37.71875 L 1.28125 -37.71875 L 1.28125 -35.328125 L 0.921875 -35.328125 Z M 4.96875 -36.59375 L 4.96875 -36.21875 C 5.207031 -36.21875 5.328125 -36.097656 5.328125 -35.859375 L 5.515625 -35.859375 L 5.515625 -36.21875 Z M 10.109375 -26.484375 L 11.78125 -26.484375 L 11.78125 -26.109375 L 10.109375 -26.109375 Z M 14.359375 -26.484375 L 14.734375 -26.484375 L 14.734375 -26.109375 L 14.359375 -26.109375 Z M 14.359375 -26.484375 "/></g></g><g transform="translate(231.091025, 54.468684)"><g><path d="M 28.0625 -44.625 C 32.28125 -44.625 35.851562 -43.722656 38.78125 -41.921875 C 38.5625 -41.816406 38.320312 -41.765625 38.0625 -41.765625 L 38.0625 -41.40625 C 38.5 -41.40625 40.160156 -40.273438 43.046875 -38.015625 C 43.753906 -38.015625 44.46875 -37.78125 45.1875 -37.3125 L 47.171875 -37.3125 L 48.046875 -37.109375 L 48.046875 -36.921875 C 48.046875 -36.691406 47.925781 -36.578125 47.6875 -36.578125 L 46.796875 -36.578125 C 46.691406 -36.578125 46.640625 -36.640625 46.640625 -36.765625 C 46.429688 -36.640625 46.128906 -36.578125 45.734375 -36.578125 L 45.734375 -36.40625 C 48.429688 -33.394531 50.453125 -29.34375 51.796875 -24.25 L 51.28125 -23.90625 L 46.984375 -23.90625 L 46.984375 -23.703125 C 48.742188 -23.703125 49.757812 -23.648438 50.03125 -23.546875 C 50.226562 -23.648438 50.523438 -23.703125 50.921875 -23.703125 L 51.28125 -23.703125 C 51.75 -23.703125 51.984375 -22.570312 51.984375 -20.3125 C 52.023438 -20.070312 52.144531 -19.953125 52.34375 -19.953125 L 54.140625 -19.953125 C 54.242188 -19.953125 54.296875 -19.898438 54.296875 -19.796875 L 54.6875 -19.953125 L 54.84375 -19.953125 C 55.570312 -19.878906 55.9375 -19.707031 55.9375 -19.4375 C 55.9375 -15.46875 54.800781 -11.472656 52.53125 -7.453125 L 52.1875 -7.28125 L 48.78125 -7.28125 L 48.046875 -6.75 L 46.28125 -6.75 C 46.039062 -6.707031 45.921875 -6.585938 45.921875 -6.390625 C 47.234375 -6.390625 47.890625 -6.328125 47.890625 -6.203125 C 45.109375 -1.628906 40.816406 1.757812 35.015625 3.96875 C 32.191406 4.695312 29.628906 5.0625 27.328125 5.0625 L 25.375 5.0625 C 23.976562 5.0625 23.023438 4.929688 22.515625 4.671875 C 22.273438 4.804688 22.09375 4.875 21.96875 4.875 C 16.726562 3.976562 12.625 2.242188 9.65625 -0.328125 C 7.351562 -2.265625 5.503906 -4.222656 4.109375 -6.203125 C 3.910156 -6.328125 3.675781 -6.390625 3.40625 -6.390625 L 1.796875 -6.390625 L 1.796875 -6.75 L 3.5625 -6.75 C 3.5625 -7.101562 3.6875 -7.28125 3.9375 -7.28125 L 6.25 -7.28125 L 7.15625 -7.453125 C 5.300781 -10.960938 4.285156 -14.179688 4.109375 -17.109375 L 4.109375 -17.640625 L 4.296875 -18 C 4.398438 -18 4.453125 -17.9375 4.453125 -17.8125 C 6.253906 -17.9375 7.570312 -18 8.40625 -18 L 11.0625 -18 L 11.0625 -18.1875 C 11.0625 -18.425781 10.945312 -18.546875 10.71875 -18.546875 L 4.296875 -18.546875 C 4.148438 -18.546875 3.851562 -18.960938 3.40625 -19.796875 L 0.359375 -19.796875 C 0.117188 -19.796875 0 -19.914062 0 -20.15625 C 0 -20.382812 0.476562 -20.5625 1.4375 -20.6875 L 1.4375 -21.40625 C 1.3125 -21.40625 1.128906 -21.457031 0.890625 -21.5625 C 0.660156 -21.457031 0.484375 -21.40625 0.359375 -21.40625 C 0.242188 -21.632812 0.1875 -21.8125 0.1875 -21.9375 C 0.53125 -26.070312 2.070312 -30.234375 4.8125 -34.421875 C 5.863281 -35.859375 6.820312 -36.578125 7.6875 -36.578125 C 9.226562 -36.578125 10 -36.753906 10 -37.109375 C 9.601562 -37.347656 9.253906 -37.46875 8.953125 -37.46875 L 8.75 -37.46875 L 7.859375 -37.3125 L 7.6875 -37.65625 L 7.859375 -38.015625 C 7.390625 -38.015625 7.15625 -38.128906 7.15625 -38.359375 C 8.039062 -39.140625 9.707031 -40.273438 12.15625 -41.765625 L 14.109375 -41.765625 C 17.296875 -43.671875 21.945312 -44.625 28.0625 -44.625 Z M 13.21875 -22.296875 L 13.21875 -21.9375 L 14.296875 -21.203125 L 14.296875 -20.859375 C 14.296875 -20.617188 14.171875 -20.5 13.921875 -20.5 L 13.046875 -20.5 L 13.046875 -19.953125 L 16.265625 -19.953125 C 16.460938 -19.953125 16.640625 -19.535156 16.796875 -18.703125 C 19.359375 -18.597656 21.265625 -18.546875 22.515625 -18.546875 L 23.921875 -18.546875 L 23.921875 -18.1875 C 23.921875 -17.9375 23.804688 -17.8125 23.578125 -17.8125 C 23.359375 -17.9375 23.1875 -18 23.0625 -18 C 22.9375 -18 22.875 -17.9375 22.875 -17.8125 L 21.96875 -18 C 21.53125 -18 19.863281 -17.9375 16.96875 -17.8125 L 16.96875 -16.9375 C 17.550781 -14.019531 19.035156 -11.390625 21.421875 -9.046875 C 22.742188 -8.140625 23.40625 -7.609375 23.40625 -7.453125 L 23.0625 -7.28125 L 20.5625 -7.28125 L 20.71875 -6.9375 L 20.71875 -6.75 L 19.65625 -6.75 L 19.65625 -6.390625 L 21.8125 -6.390625 C 23.925781 -5.796875 25.347656 -5.5 26.078125 -5.5 C 26.765625 -5.5 27.894531 -5.675781 29.46875 -6.03125 C 29.46875 -6.269531 29.351562 -6.390625 29.125 -6.390625 L 28.21875 -6.390625 L 28.21875 -6.75 L 30.1875 -6.75 C 30.3125 -6.75 31.144531 -6.925781 32.6875 -7.28125 L 34.484375 -7.28125 C 34.753906 -7.28125 34.988281 -7.335938 35.1875 -7.453125 C 35.414062 -7.335938 35.597656 -7.28125 35.734375 -7.28125 C 38.066406 -8.28125 40.148438 -10.484375 41.984375 -13.890625 C 42.691406 -16.285156 43.046875 -17.65625 43.046875 -18 L 43.046875 -19.4375 C 43.046875 -19.632812 42.457031 -19.804688 41.28125 -19.953125 L 40.921875 -19.796875 L 39.671875 -19.796875 C 39.179688 -19.796875 38.9375 -20.984375 38.9375 -23.359375 L 38.0625 -23.546875 L 31.984375 -23.546875 L 31.984375 -23.90625 C 33.773438 -24.007812 35.085938 -24.0625 35.921875 -24.0625 L 38.578125 -24.0625 L 38.578125 -24.25 C 37.453125 -27.425781 35.671875 -29.863281 33.234375 -31.5625 C 30.523438 -33.238281 28.320312 -34.078125 26.625 -34.078125 C 21.632812 -34.078125 17.582031 -31.519531 14.46875 -26.40625 C 13.632812 -24.300781 13.21875 -22.929688 13.21875 -22.296875 Z M 0.890625 -18.546875 L 2.859375 -18.546875 C 3.085938 -18.503906 3.203125 -18.382812 3.203125 -18.1875 L 2.859375 -18 L 0.890625 -18 Z M 44.84375 -17.8125 L 44.671875 -17.453125 L 44.671875 -17.296875 L 44.84375 -17.296875 C 44.84375 -17.523438 44.957031 -17.640625 45.1875 -17.640625 L 45.1875 -17.8125 Z M 22.875 -15.140625 L 23.0625 -15.140625 C 23.289062 -15.109375 23.40625 -14.992188 23.40625 -14.796875 L 23.40625 -14.25 C 23.40625 -14.007812 23.289062 -13.890625 23.0625 -13.890625 L 22.875 -13.890625 C 22.632812 -13.890625 22.515625 -14.007812 22.515625 -14.25 L 22.515625 -14.796875 C 22.546875 -15.023438 22.664062 -15.140625 22.875 -15.140625 Z M 1.953125 -13.1875 L 3.046875 -13.1875 L 3.203125 -12.296875 L 2.6875 -11.9375 L 2.140625 -11.9375 C 1.910156 -11.9375 1.734375 -12.289062 1.609375 -13 Z M 1.953125 -13.1875 "/></g></g><g transform="translate(283.791856, 54.468684)"><g><path d="M 6.171875 -44.625 C 7.347656 -44.625 10.039062 -44.5625 14.25 -44.4375 C 18.539062 -38.144531 20.929688 -34.898438 21.421875 -34.703125 C 21.898438 -34.703125 22.570312 -34.273438 23.4375 -33.421875 L 29.34375 -33.421875 C 29.570312 -33.378906 29.6875 -33.25 29.6875 -33.03125 C 29.6875 -32.800781 29.570312 -32.6875 29.34375 -32.6875 L 28.765625 -32.6875 C 28.492188 -32.6875 28.25 -32.738281 28.03125 -32.84375 C 27.832031 -32.738281 27.585938 -32.6875 27.296875 -32.6875 C 27.023438 -32.6875 26.78125 -32.738281 26.5625 -32.84375 L 25.484375 -32.6875 L 24.359375 -32.6875 L 24.015625 -32.84375 L 23.8125 -32.5 C 25.269531 -30.550781 28.828125 -25.460938 34.484375 -17.234375 L 33.546875 -16.859375 C 35.234375 -14.316406 36.34375 -12.847656 36.875 -12.453125 L 37.0625 -13.375 L 37.0625 -14.296875 C 37.0625 -15.023438 36.691406 -15.878906 35.953125 -16.859375 C 36.566406 -16.984375 36.875 -17.109375 36.875 -17.234375 C 36.257812 -18.179688 35.953125 -18.789062 35.953125 -19.0625 C 36.179688 -19.1875 36.359375 -19.25 36.484375 -19.25 C 36.128906 -19.707031 35.953125 -20.132812 35.953125 -20.53125 L 35.953125 -30.296875 C 35.328125 -30.296875 35.015625 -30.347656 35.015625 -30.453125 L 34.671875 -30.296875 C 34.410156 -30.296875 34.28125 -30.410156 34.28125 -30.640625 L 34.28125 -30.828125 C 34.320312 -31.085938 34.453125 -31.21875 34.671875 -31.21875 L 35.953125 -31.21875 L 35.953125 -34.5 C 35.203125 -34.5 34.828125 -34.628906 34.828125 -34.890625 L 34.828125 -44.078125 L 35.015625 -44.4375 C 37.460938 -44.5625 39.304688 -44.625 40.546875 -44.625 L 47.15625 -44.625 C 47.28125 -44.625 47.34375 -44.5625 47.34375 -44.4375 L 47.71875 -44.625 C 47.957031 -44.582031 48.078125 -44.453125 48.078125 -44.234375 L 48.078125 -34.703125 C 48.867188 -34.703125 49.300781 -34.519531 49.375 -34.15625 L 49.375 -31.5625 C 49.375 -31.382812 49.1875 -31.207031 48.8125 -31.03125 L 47.71875 -31.03125 L 47.71875 -30.453125 L 48.8125 -30.453125 C 48.988281 -30.453125 49.175781 -30.269531 49.375 -29.90625 L 49.375 -17.40625 L 48.078125 -16.671875 L 48.078125 -9.515625 C 48.078125 -9.347656 47.710938 -9.101562 46.984375 -8.78125 L 47.15625 -7.484375 L 47.15625 -3.078125 C 47.769531 -3.078125 48.078125 -2.957031 48.078125 -2.71875 L 48.078125 4.078125 L 48.265625 5 L 47.890625 5.1875 L 39.625 5.1875 C 38.40625 5.1875 36.5625 5.125 34.09375 5 C 30.726562 -0.195312 28.769531 -2.890625 28.21875 -3.078125 C 27.65625 -3.078125 27.050781 -3.753906 26.40625 -5.109375 C 24.550781 -7.484375 23.625 -8.828125 23.625 -9.140625 L 24.171875 -9.140625 L 24.171875 -9.515625 L 19.03125 -16.859375 C 19.644531 -16.984375 19.953125 -17.109375 19.953125 -17.234375 L 17.375 -20.90625 L 17.375 -23.5 C 17.375 -24.1875 16.703125 -25.40625 15.359375 -27.15625 L 15.171875 -27.15625 L 15.171875 -17.40625 L 14.078125 -16.671875 L 14.078125 -16.3125 L 16.09375 -16.3125 C 16.332031 -16.28125 16.453125 -16.15625 16.453125 -15.9375 L 16.453125 -15.390625 C 16.453125 -15.210938 16.269531 -15.03125 15.90625 -14.84375 L 14.078125 -14.84375 L 13.890625 -12.640625 L 13.890625 -7.125 L 14.078125 -6.203125 C 13.796875 -5.960938 13.425781 -5.84375 12.96875 -5.84375 L 12.96875 -4.734375 L 13.890625 -4 L 13.890625 2.25 L 14.078125 3.34375 C 13.953125 3.5625 13.890625 3.804688 13.890625 4.078125 L 14.078125 5 L 13.703125 5.1875 L 5.625 5.1875 C 4.570312 5.1875 2.914062 5.125 0.65625 5 L 0.46875 4.65625 L 0.46875 4.453125 C 0.46875 4.328125 0.53125 4.265625 0.65625 4.265625 L 0.46875 3.921875 L 0.46875 -4 L -0.4375 -4.734375 L -0.4375 -5.46875 L 0.46875 -6.203125 L 0.46875 -14.46875 C 0.46875 -14.644531 0.65625 -14.832031 1.03125 -15.03125 L 2.671875 -15.03125 C 2.921875 -15.03125 3.046875 -15.148438 3.046875 -15.390625 L 3.046875 -15.9375 C 3.046875 -16.1875 2.921875 -16.3125 2.671875 -16.3125 L 0.84375 -16.3125 C 0.59375 -16.3125 0.46875 -16.429688 0.46875 -16.671875 C 0.5 -16.921875 0.625 -17.046875 0.84375 -17.046875 L 1.765625 -17.046875 L 1.765625 -17.40625 C 1.765625 -17.820312 1.820312 -18.128906 1.9375 -18.328125 L 1.765625 -19.25 L 1.9375 -19.984375 C 1.9375 -20.109375 1.878906 -20.171875 1.765625 -20.171875 L 1.9375 -21.09375 L 1.9375 -21.453125 C 1.9375 -21.941406 1.878906 -22.1875 1.765625 -22.1875 L 1.9375 -23.5 L 1.9375 -24.234375 C 1.9375 -25.828125 1.878906 -27.898438 1.765625 -30.453125 L 1.9375 -30.828125 L 1.765625 -31.21875 C 1.878906 -32.195312 2.0625 -32.6875 2.3125 -32.6875 L 3.96875 -32.6875 C 4.820312 -32.6875 6.164062 -32.738281 8 -32.84375 L 8 -33.234375 L 7.828125 -33.234375 C 6.921875 -33.234375 6.242188 -33.296875 5.796875 -33.421875 C 4.992188 -33.296875 4.195312 -33.234375 3.40625 -33.234375 C 2.1875 -33.234375 1.578125 -33.65625 1.578125 -34.5 C 0.835938 -34.5 0.46875 -34.679688 0.46875 -35.046875 L 0.46875 -44.078125 L 0.65625 -44.4375 C 3.28125 -44.5625 5.117188 -44.625 6.171875 -44.625 Z M -0.4375 -31.21875 L -0.078125 -31.21875 C 0.171875 -31.164062 0.296875 -31.035156 0.296875 -30.828125 C 0.296875 -30.554688 -0.0078125 -30.378906 -0.625 -30.296875 L -0.8125 -30.640625 L -0.8125 -30.828125 C -0.78125 -31.085938 -0.65625 -31.21875 -0.4375 -31.21875 Z M 32.625 -31.21875 L 32.8125 -31.21875 C 33.070312 -31.164062 33.203125 -31.035156 33.203125 -30.828125 L 33.203125 -30.640625 C 33.203125 -30.410156 33.070312 -30.296875 32.8125 -30.296875 C 32.632812 -30.296875 32.457031 -30.472656 32.28125 -30.828125 C 32.3125 -31.085938 32.425781 -31.21875 32.625 -31.21875 Z M 37.21875 -18.328125 C 37.257812 -18.085938 37.390625 -17.96875 37.609375 -17.96875 L 37.609375 -18.328125 Z M 37.953125 -17.78125 L 37.953125 -17.40625 L 38.15625 -17.40625 L 38.15625 -17.78125 Z M 37.953125 -17.78125 "/></g></g><g transform="translate(334.018087, 54.468684)"><g><path d="M 6.203125 -44.703125 L 32.359375 -44.703125 C 32.523438 -44.703125 32.707031 -44.519531 32.90625 -44.15625 L 32.90625 -37.875 C 32.90625 -37.707031 33.082031 -37.523438 33.4375 -37.328125 L 34.171875 -37.328125 C 34.460938 -37.328125 34.71875 -37.394531 34.9375 -37.53125 C 35.539062 -37.363281 35.84375 -37.179688 35.84375 -36.984375 L 35.84375 -36.59375 C 35.84375 -36.363281 35.722656 -36.25 35.484375 -36.25 L 34.5625 -36.25 L 34.5625 -35.328125 C 34.5625 -35.066406 34.429688 -34.9375 34.171875 -34.9375 L 21.484375 -34.9375 C 20.191406 -34.9375 18.234375 -34.875 15.609375 -34.75 L 15.609375 -33.09375 C 15.640625 -32.851562 15.757812 -32.734375 15.96875 -32.734375 L 17.625 -32.734375 C 17.875 -32.703125 18 -32.578125 18 -32.359375 L 18 -24.4375 L 34.015625 -24.4375 C 34.253906 -24.40625 34.375 -24.289062 34.375 -24.09375 L 34.375 -21.3125 C 34.375 -21.082031 33.703125 -20.90625 32.359375 -20.78125 L 31.984375 -20.96875 L 30.890625 -20.78125 C 30.640625 -20.90625 30.445312 -20.96875 30.3125 -20.96875 L 30.125 -20.046875 L 30.125 -16.90625 L 30.3125 -15.0625 L 29.78125 -14.6875 L 14.109375 -14.6875 C 14.109375 -14.269531 13.679688 -14.023438 12.828125 -13.953125 L 11.71875 -14.140625 L 11.359375 -14.140625 C 11.109375 -14.097656 10.984375 -13.972656 10.984375 -13.765625 L 10.984375 -13.59375 L 12.09375 -13.59375 L 13.953125 -13.40625 L 13.953125 -7.3125 C 13.953125 -6.65625 14.3125 -6.296875 15.03125 -6.234375 C 15.03125 -5.953125 15.097656 -5.707031 15.234375 -5.5 C 15.097656 -5.28125 15.03125 -5.035156 15.03125 -4.765625 L 15.03125 -4.5625 L 32.546875 -4.5625 C 32.785156 -4.5625 32.96875 -3.945312 33.09375 -2.71875 L 35.84375 -2.71875 C 36.09375 -2.6875 36.21875 -2.566406 36.21875 -2.359375 C 36.21875 -2.109375 36.09375 -1.984375 35.84375 -1.984375 L 33.828125 -1.984375 L 32.90625 -1.796875 L 32.90625 5.1875 L 2.71875 5.1875 C 2.59375 5.1875 2.53125 5.125 2.53125 5 L 2.140625 5.1875 L 1.0625 5.1875 C 0.875 5.1875 0.679688 5.007812 0.484375 4.65625 L 0.484375 4.265625 C 0.484375 4.140625 0.550781 4.078125 0.6875 4.078125 L 0.484375 3.71875 L 0.484375 -0.703125 L -0.4375 -0.875 L -2.0625 -0.875 C -2.320312 -0.875 -2.453125 -1 -2.453125 -1.25 L -2.453125 -1.625 C -2.410156 -1.863281 -2.28125 -1.984375 -2.0625 -1.984375 C -0.0195312 -2.109375 1.570312 -2.171875 2.71875 -2.171875 L 3.453125 -2.171875 L 3.453125 -2.53125 L 1.609375 -2.71875 L 0.875 -2.71875 C 0.613281 -2.71875 0.484375 -2.898438 0.484375 -3.265625 L 0.6875 -3.640625 C 0.550781 -3.859375 0.484375 -4.101562 0.484375 -4.375 C 0.484375 -4.539062 0.859375 -4.722656 1.609375 -4.921875 C 1.734375 -5.140625 1.796875 -5.394531 1.796875 -5.6875 C 1.796875 -6.207031 1.359375 -6.503906 0.484375 -6.578125 L 0.484375 -12.859375 L 0.6875 -13.21875 L 0.328125 -13.40625 L -2.0625 -13.40625 C -2.320312 -13.40625 -2.453125 -13.523438 -2.453125 -13.765625 C -2.410156 -14.015625 -2.28125 -14.140625 -2.0625 -14.140625 L 0.140625 -14.140625 C 0.367188 -14.140625 0.484375 -14.265625 0.484375 -14.515625 L 0.484375 -20.578125 C 0.484375 -20.835938 0.675781 -20.96875 1.0625 -20.96875 C 1.4375 -20.96875 2.597656 -21.019531 4.546875 -21.125 L 4.546875 -32.359375 C 4.546875 -32.734375 3.875 -32.921875 2.53125 -32.921875 L 2.140625 -32.921875 L 2.140625 -35.859375 L 3.453125 -36.59375 L 3.453125 -36.984375 C 3.453125 -37.210938 3.328125 -37.328125 3.078125 -37.328125 L 0.875 -37.328125 C 0.613281 -37.328125 0.484375 -37.457031 0.484375 -37.71875 L 0.484375 -44.15625 L 0.6875 -44.515625 C 3.144531 -44.640625 4.984375 -44.703125 6.203125 -44.703125 Z M -0.78125 -22.59375 L 0.140625 -22.59375 C 0.367188 -22.5625 0.484375 -22.445312 0.484375 -22.25 L 0.484375 -21.3125 C 0.484375 -21.082031 0.367188 -20.96875 0.140625 -20.96875 L -0.78125 -20.96875 C -1.039062 -20.96875 -1.171875 -21.082031 -1.171875 -21.3125 L -1.171875 -22.25 C -1.117188 -22.476562 -0.988281 -22.59375 -0.78125 -22.59375 Z M 5.84375 -2.171875 L 7.5 -2.171875 L 7.5 -2.53125 L 6.203125 -2.53125 C 5.960938 -2.488281 5.84375 -2.367188 5.84375 -2.171875 Z M 25.71875 -1.984375 L 25.71875 -1.25 C 25.757812 -1 25.890625 -0.875 26.109375 -0.875 L 28.65625 -0.875 C 28.65625 -1.019531 28.71875 -1.207031 28.84375 -1.4375 C 28.71875 -1.675781 28.65625 -1.859375 28.65625 -1.984375 Z M 25.71875 -1.984375 "/></g></g></g></svg>