<svg xmlns="http://www.w3.org/2000/svg" xmlns:xlink="http://www.w3.org/1999/xlink" width="500" zoomAndPan="magnify" viewBox="0 0 375 374.999991" height="500" preserveAspectRatio="xMidYMid meet" version="1.0"><defs><g/></defs><rect x="-37.5" width="450" fill="#ffffff" y="-37.499999" height="449.999989" fill-opacity="1"/><rect x="-37.5" width="450" fill="#ffffff" y="-37.499999" height="449.999989" fill-opacity="1"/><g fill="#fdb11d" fill-opacity="1"><g transform="translate(66.93775, 285.496498)"><g><path d="M 38.890625 -251.734375 L 98 -251.734375 C 140.15625 -251.734375 173.078125 -242.035156 196.765625 -222.640625 C 214.117188 -208.453125 226.929688 -194.265625 235.203125 -180.078125 L 249.734375 -180.078125 C 262.191406 -158.835938 268.421875 -140.507812 268.421875 -125.09375 L 268.421875 -122.953125 C 268.421875 -122.648438 267.707031 -121.628906 266.28125 -119.890625 L 261.078125 -120.8125 L 252.796875 -120.8125 L 252.796875 -115.765625 C 252.796875 -114.328125 252.082031 -113.609375 250.65625 -113.609375 L 239.328125 -113.609375 L 239.328125 -105.34375 L 250.65625 -105.34375 C 252.082031 -105.144531 252.796875 -104.429688 252.796875 -103.203125 L 252.796875 -101.21875 C 252.796875 -86.101562 246.929688 -66.347656 235.203125 -41.953125 C 233.765625 -41.753906 233.046875 -41.039062 233.046875 -39.8125 L 233.046875 -38.890625 L 252.796875 -38.890625 C 254.128906 -38.691406 254.796875 -37.976562 254.796875 -36.75 C 252.546875 -35.425781 250.503906 -34.765625 248.671875 -34.765625 L 230.90625 -34.765625 L 215.4375 -15.921875 L 195.6875 -15.921875 C 185.28125 -15.921875 180.078125 -14.238281 180.078125 -10.875 L 180.078125 -9.796875 L 207.015625 -9.796875 C 208.453125 -9.597656 209.171875 -8.882812 209.171875 -7.65625 C 208.046875 -7.65625 203.910156 -4.539062 196.765625 1.6875 C 170.628906 20.363281 145.363281 29.703125 120.96875 29.703125 L 6.578125 29.703125 L 6.578125 -7.65625 C 6.578125 -9.082031 5.914062 -9.796875 4.59375 -9.796875 L 2.453125 -9.796875 C -15.515625 -9.796875 -24.5 -10.816406 -24.5 -12.859375 L -24.5 -13.9375 C -24.289062 -15.257812 -23.578125 -15.921875 -22.359375 -15.921875 L 4.59375 -15.921875 C 5.914062 -15.921875 6.578125 -16.632812 6.578125 -18.0625 L 6.578125 -34.765625 C 11.171875 -34.765625 18.113281 -35.066406 27.40625 -35.671875 L 27.40625 -37.828125 C 18.019531 -38.535156 11.4375 -38.890625 7.65625 -38.890625 L 6.578125 -40.890625 L 6.578125 -102.125 C 6.578125 -103.144531 5.554688 -104.21875 3.515625 -105.34375 L -5.8125 -105.34375 C -7.144531 -105.34375 -7.8125 -106.007812 -7.8125 -107.34375 L -7.8125 -111.46875 C -7.8125 -113.101562 -5.054688 -114.175781 0.453125 -114.6875 L 2.453125 -113.609375 L 9.796875 -119.890625 C 18.785156 -119.890625 23.28125 -120.910156 23.28125 -122.953125 L 23.28125 -177.921875 C 23.28125 -179.554688 17.710938 -180.988281 6.578125 -182.21875 L 6.578125 -248.671875 L 7.65625 -250.65625 C 21.539062 -251.375 31.953125 -251.734375 38.890625 -251.734375 Z M 81.453125 -193.546875 L 81.453125 -182.21875 C 81.660156 -180.789062 82.328125 -180.078125 83.453125 -180.078125 L 96 -180.078125 C 97.332031 -179.867188 98 -179.148438 98 -177.921875 L 98 -122.953125 C 98 -122.441406 96.976562 -121.421875 94.9375 -119.890625 L 89.734375 -120.8125 L 83.453125 -120.8125 L 79.3125 -113.609375 L 69.984375 -113.609375 C 68.648438 -113.410156 67.984375 -112.695312 67.984375 -111.46875 L 67.984375 -105.34375 L 79.3125 -105.34375 C 79.925781 -105.34375 81 -104.269531 82.53125 -102.125 L 81.453125 -96.921875 L 81.453125 -56.5 C 81.453125 -54.96875 81.8125 -53.59375 82.53125 -52.375 C 81.8125 -51.144531 81.453125 -49.765625 81.453125 -48.234375 L 81.453125 -44.09375 L 82.53125 -38.890625 L 94.9375 -38.890625 C 96.46875 -38.890625 97.84375 -38.535156 99.0625 -37.828125 C 100.289062 -38.535156 101.671875 -38.890625 103.203125 -38.890625 L 104.28125 -36.75 L 100.140625 -34.765625 C 98.710938 -34.765625 98 -35.066406 98 -35.671875 L 90.796875 -34.765625 L 82.53125 -34.765625 L 81.453125 -29.546875 L 81.453125 -27.40625 C 81.660156 -25.976562 82.328125 -25.265625 83.453125 -25.265625 L 105.34375 -25.265625 C 112.082031 -25.265625 123.160156 -28.429688 138.578125 -34.765625 C 148.984375 -35.367188 156.585938 -35.671875 161.390625 -35.671875 L 162.46875 -37.828125 C 155.519531 -38.535156 150.3125 -38.890625 146.84375 -38.890625 L 144.859375 -38.890625 L 144.859375 -40.890625 C 157.617188 -50.171875 166.957031 -63.691406 172.875 -81.453125 L 178.078125 -103.203125 L 174.859375 -105.34375 L 165.53125 -105.34375 C 164.195312 -105.34375 163.53125 -106.007812 163.53125 -107.34375 L 163.53125 -111.46875 C 163.53125 -112.488281 164.550781 -113.5625 166.59375 -114.6875 C 167.3125 -114.6875 167.671875 -114.328125 167.671875 -113.609375 C 174.097656 -113.609375 178.234375 -115.703125 180.078125 -119.890625 L 186.34375 -119.890625 L 193.546875 -120.8125 L 193.546875 -122.953125 C 190.992188 -143.367188 180.988281 -162.050781 163.53125 -179 C 148.320312 -180.226562 138.929688 -182.675781 135.359375 -186.34375 C 124.234375 -192.570312 114.894531 -195.6875 107.34375 -195.6875 L 83.453125 -195.6875 C 82.117188 -195.488281 81.453125 -194.773438 81.453125 -193.546875 Z M 1.53125 -180.078125 L 3.515625 -180.078125 C 4.953125 -179.867188 5.671875 -179.148438 5.671875 -177.921875 L 5.671875 -175.9375 C 5.671875 -174.707031 3.929688 -173.6875 0.453125 -172.875 L -0.609375 -174.859375 L -0.609375 -177.921875 C -0.410156 -179.359375 0.300781 -180.078125 1.53125 -180.078125 Z M 148.984375 -119.890625 L 160.3125 -119.890625 C 161.75 -119.691406 162.46875 -118.976562 162.46875 -117.75 L 162.46875 -116.671875 C 162.46875 -115.347656 161.75 -114.6875 160.3125 -114.6875 L 150.984375 -114.6875 C 149.648438 -114.6875 148.984375 -115.347656 148.984375 -116.671875 Z M -17.296875 -114.6875 L -15.15625 -114.6875 C -13.726562 -114.476562 -13.015625 -113.765625 -13.015625 -112.546875 L -13.015625 -107.34375 C -13.015625 -106.007812 -13.726562 -105.34375 -15.15625 -105.34375 L -19.296875 -105.34375 L -19.296875 -112.546875 C -19.085938 -113.972656 -18.421875 -114.6875 -17.296875 -114.6875 Z M -17.296875 -114.6875 "/></g></g></g></svg>